<svg width="24" height="24" viewBox="0 0 24 24" fill="none" xmlns="http://www.w3.org/2000/svg">
<path d="M5 1.00072H18.5" stroke="black" stroke-width="2"/>
<path d="M4 14.5007C3.73478 14.5007 3.48043 14.3954 3.29289 14.2078C3.10536 14.0203 3 13.7659 3 13.5007C3 13.2355 3.10536 12.9811 3.29289 12.7936C3.48043 12.6061 3.73478 12.5007 4 12.5007C4.67973 12.5007 5.35946 12.5007 6.03918 12.5007C8.02612 12.5007 10.0131 12.5007 12 12.5007C14.6667 12.5007 17.3333 12.5007 20 12.5007L19 13.5007C19 12.5015 19 11.4994 19 10.5007C19.1084 9.20031 16.782 8.17803 14.9005 7.99575L14 7.9057V7.00072C14 5.66738 14 4.33405 14 3.00072C13.9975 2.35747 14.2147 1.70684 14.6053 1.19347C15.1567 0.45322 16.0755 -0.00660717 17 0.000717163C17.0583 0.000717163 17.1166 0.000717163 17.175 0.000717163C17.45 0.000717163 17.725 0.000717163 18 0.000717163V2.00072C16.6037 2.00072 15.2075 2.00072 13.8112 2.00072C13.5539 2.00072 13.2965 1.97558 13.0392 1.9253C12.3595 1.7925 11.6797 1.4843 11 1.00072C11.6797 0.517133 12.3595 0.208939 13.0392 0.0761353C13.2965 0.0258566 13.5539 0.000717163 13.8112 0.000717163C15.2075 0.000717163 16.6037 0.000717163 18 0.000717163V2.00072C17.725 2.00072 17.45 2.00072 17.175 2.00072C17.1166 2.00072 17.0583 2.00072 17 2.00072C16.688 1.99888 16.3888 2.14943 16.2011 2.39906C16.0702 2.57238 15.9998 2.78141 16 3.00072C16 4.33405 16 5.66738 16 7.00072L15.0995 6.00568C16.3366 6.14542 17.4984 6.4515 18.643 7.05631C19.7364 7.61287 21.0367 8.85695 21 10.5007C21 11.4994 21 12.5015 21 13.5007V14.5007H20C17.3333 14.5007 14.6667 14.5007 12 14.5007C10.0131 14.5007 8.02612 14.5007 6.03918 14.5007C5.35946 14.5007 4.67973 14.5007 4 14.5007Z" fill="black"/>
<path d="M3 13.5007C3 13.7659 3.10536 14.0203 3.29289 14.2078C3.48043 14.3954 3.73478 14.5007 4 14.5007C4.26522 14.5007 4.51957 14.3954 4.70711 14.2078C4.89464 14.0203 5 13.7659 5 13.5007C5 13.0888 5 12.6746 5 12.2616C5 11.6745 5 11.0873 5 10.5007C4.89162 9.20031 7.21801 8.17803 9.0995 7.99575L10 7.9057V7.00072C10 5.66738 10 4.33405 10 3.00072C10.0376 1.40167 8.59904 -0.036852 7 0.000717163C6.66667 0.000717163 6.33333 0.000717163 6 0.000717163V2.00072C6.33827 2.00072 6.67654 2.00072 7.01481 2.00072C7.42482 2.00072 7.83483 2.00072 8.24484 2.00072C9.26045 2.00072 10.2761 2.00072 11.2917 2.00072C11.4481 2.00072 11.6044 1.97558 11.7608 1.9253C12.1739 1.7925 12.5869 1.4843 13 1.00072C12.5869 0.517133 12.1739 0.208939 11.7608 0.0761353C11.6044 0.0258566 11.4481 0.000717163 11.2917 0.000717163C10.2761 0.000717163 9.26045 0.000717163 8.24484 0.000717163C7.83483 0.000717163 7.42482 0.000717163 7.01481 0.000717163C6.67654 0.000717163 6.33827 0.000717163 6 0.000717163V2.00072C6.33333 2.00072 6.66667 2.00072 7 2.00072C7.5316 1.98648 8.01424 2.46912 8 3.00072C8 4.33405 8 5.66738 8 7.00072L8.9005 6.00568C7.66339 6.14542 6.50165 6.4515 5.35704 7.05631C4.2636 7.61287 2.96332 8.85695 3 10.5007C3 11.0873 3 11.6745 3 12.2616C3 12.6746 3 13.0888 3 13.5007Z" fill="black"/>
<path d="M12.5 13.5007C11.8333 13.5007 11.1667 13.5007 10.5 13.5007C10.5 13.6507 10.5 13.8007 10.5 13.9507C10.5 15.0507 10.5 16.1507 10.5 17.2507C10.5 18.5007 10.5 19.7507 10.5 21.0007C10.5 21.2507 11.5 21.5007 11.5 21.7507C11.5 21.8507 11.4467 21.9507 11.34 22.0507C11.18 22.2007 10.9 22.3507 10.5 22.5007C11.1667 22.5007 11.8333 22.5007 12.5 22.5007C12.1 22.3507 11.82 22.2007 11.66 22.0507C11.5533 21.9507 11.5 21.8507 11.5 21.7507C11.5 21.5007 12.5 21.2507 12.5 21.0007C12.5 19.7507 12.5 18.5007 12.5 17.2507C12.5 16.1507 12.5 15.0507 12.5 13.9507C12.5 13.8007 12.5 13.6507 12.5 13.5007Z" fill="black"/>
</svg>
