<svg width="25" height="26" viewBox="0 0 25 26" fill="none" xmlns="http://www.w3.org/2000/svg">
<path d="M17 3.68689H21C22.6569 3.68689 24 5.03003 24 6.68689V20.6869C24 22.3437 22.6569 23.6869 21 23.6869H17" stroke="black" stroke-width="2" stroke-linecap="round"/>
<path d="M14.7075 23.252L18.5712 22.2167C20.1716 21.7879 21.1213 20.1429 20.6925 18.5425L17.0622 4.99398C16.636 3.40359 15.0077 2.45385 13.4136 2.86591L5.47911 4.91688C3.84615 5.33899 2.88197 7.02385 3.34532 8.64558L3.5 9.18695" stroke="black" stroke-width="2" stroke-linecap="round"/>
<circle cx="4" cy="14.687" r="2" stroke="black" stroke-width="2" stroke-linecap="round"/>
<circle cx="4" cy="22.687" r="2" stroke="black" stroke-width="2" stroke-linecap="round"/>
<path d="M3.5 16.187L13.5 22.3831" stroke="black" stroke-width="2"/>
<path d="M4 20.8831L14 14.687" stroke="black" stroke-width="2"/>
</svg>
