<svg width="25" height="24" viewBox="0 0 25 24" fill="none" xmlns="http://www.w3.org/2000/svg">
<path d="M20.969 14.0951C21.85 9.41779 18.7725 4.9119 14.0951 4.03093C9.41782 3.14996 4.91193 6.22751 4.03096 10.9048C3.14999 15.5822 6.22754 20.088 10.9049 20.969C12.148 21.2032 13.3791 21.1577 14.5332 20.8768" stroke="black" stroke-width="1.5"/>
<path d="M21 14L20.4482 16.1072C20.3803 16.3664 20.3652 16.6366 20.4038 16.9018L20.7853 19.5242C20.8877 20.2281 20.2432 20.8108 19.5532 20.6383L17.565 20.1413C17.196 20.049 16.8083 20.0639 16.4475 20.1842L14 21" stroke="black" stroke-width="1.5"/>
<circle cx="8.60001" cy="12.75" r="1.25" fill="black"/>
<circle cx="12.6" cy="12.75" r="1.25" fill="black"/>
<circle cx="16.6" cy="12.75" r="1.25" fill="black"/>
</svg>
